<?xml version="1.0" encoding="UTF-8" standalone="no"?>
<!DOCTYPE svg PUBLIC "-//W3C//DTD SVG 1.1//EN" "http://www.w3.org/Graphics/SVG/1.1/DTD/svg11.dtd">
<svg width="100%" height="100%" viewBox="0 0 5692 4084" version="1.1" xmlns="http://www.w3.org/2000/svg" xmlns:xlink="http://www.w3.org/1999/xlink" xml:space="preserve" xmlns:serif="http://www.serif.com/" style="fill-rule:evenodd;clip-rule:evenodd;stroke-linejoin:round;stroke-miterlimit:1.41421;">
    <g transform="matrix(4.16667,0,0,4.16667,0,0)">
        <path d="M350.931,307.243C349.477,279.399 333.005,265.47 301.525,265.47L264.472,265.47L264.472,403.512L303.343,403.512C333.857,403.512 349.719,389.588 350.931,361.739C351.172,356.649 351.295,351.87 351.295,347.386L351.295,321.414C351.295,317.054 351.172,312.333 350.931,307.243ZM303.343,207.343C320.052,207.343 335.312,209.832 349.117,214.793C362.919,219.76 374.848,226.722 384.899,235.68C394.945,244.643 402.819,255.359 408.511,267.83C414.196,280.306 417.409,293.93 418.139,308.697C418.375,313.782 418.503,318.448 418.503,322.686L418.503,346.844C418.503,350.963 418.375,355.442 418.139,360.285C417.409,375.304 414.261,388.981 408.692,401.334C403.12,413.687 395.434,424.345 385.623,433.302C375.818,442.265 364.131,449.227 350.566,454.189C337.001,459.156 321.869,461.639 305.156,461.639L207.074,461.639C204.403,461.639 202.107,460.673 200.171,458.732C198.229,456.795 197.264,454.5 197.264,451.829L197.264,217.153C197.264,214.493 198.229,212.191 200.171,210.25C202.107,208.314 204.403,207.343 207.074,207.343L303.343,207.343Z" style="fill:white;fill-rule:nonzero;"/>
        <path d="M641.91,403.512C644.575,403.512 646.871,404.483 648.813,406.419C650.749,408.36 651.72,410.662 651.72,413.322L651.72,451.829C651.72,454.5 650.749,456.795 648.813,458.732C646.871,460.673 644.575,461.639 641.91,461.639L469.717,461.639C467.051,461.639 464.75,460.673 462.818,458.732C460.877,456.795 459.912,454.5 459.912,451.829L459.912,217.153C459.912,214.493 460.877,212.191 462.818,210.25C464.75,208.314 467.051,207.343 469.717,207.343L639.008,207.343C641.668,207.343 643.965,208.314 645.906,210.25C647.842,212.191 648.813,214.493 648.813,217.153L648.813,255.66C648.813,258.326 647.842,260.626 645.906,262.563C643.965,264.504 641.668,265.47 639.008,265.47L527.114,265.47L527.114,304.701L631.016,304.701C633.677,304.701 635.973,305.671 637.914,307.608C639.851,309.549 640.821,311.85 640.821,314.511L640.821,353.018C640.821,355.688 639.851,357.984 637.914,359.921C635.973,361.862 633.677,362.828 631.016,362.828L527.114,362.828L527.114,403.512L641.91,403.512Z" style="fill:white;fill-rule:nonzero;"/>
        <path d="M1119.61,461.639C1115.49,461.639 1112.17,460.55 1109.63,458.367C1107.08,456.189 1105.45,454.5 1104.72,453.282L1021.53,329.042L1021.53,451.829C1021.53,454.5 1020.56,456.795 1018.62,458.732C1016.68,460.673 1014.39,461.639 1011.72,461.639L964.133,461.639C961.462,461.639 959.166,460.673 957.229,458.732C955.288,456.795 954.322,454.5 954.322,451.829L954.322,217.153C954.322,214.493 955.288,212.191 957.229,210.25C959.166,208.314 961.462,207.343 964.133,207.343L1001.92,207.343C1006.03,207.343 1009.36,208.432 1011.9,210.615C1014.45,212.793 1016.08,214.493 1016.81,215.7L1100,339.94L1100,217.153C1100,214.493 1100.96,212.191 1102.9,210.25C1104.84,208.314 1107.14,207.343 1109.81,207.343L1157.39,207.343C1160.06,207.343 1162.36,208.314 1164.3,210.25C1166.23,212.191 1167.21,214.493 1167.21,217.153L1167.21,451.829C1167.21,454.5 1166.23,456.795 1164.3,458.732C1162.36,460.673 1160.06,461.639 1157.39,461.639L1119.61,461.639Z" style="fill:white;fill-rule:nonzero;"/>
        <path d="M382.832,651.569L406.084,528.782C406.809,525.15 408.262,522.604 410.439,521.154C412.622,519.701 414.919,518.972 417.343,518.972L464.936,518.972C467.113,518.972 468.985,519.76 470.563,521.332C472.134,522.914 472.927,524.786 472.927,526.964C472.927,527.693 472.799,528.664 472.563,529.871L425.699,759.461C425.212,762.856 423.275,766 419.885,768.907C416.49,771.814 412.376,773.268 407.537,773.268L377.383,773.268C372.534,773.268 368.603,771.814 365.577,768.907C362.547,766 360.428,762.856 359.221,759.461L331.973,677.363L304.726,759.461C303.514,762.856 301.395,766 298.369,768.907C295.339,771.814 291.407,773.268 286.563,773.268L256.413,773.268C251.565,773.268 247.451,771.814 244.061,768.907C240.666,766 238.729,762.856 238.247,759.461L191.384,529.871C191.143,528.664 191.023,527.693 191.023,526.964C191.023,524.786 191.808,522.914 193.384,521.332C194.956,519.76 196.833,518.972 199.016,518.972L246.604,518.972C249.022,518.972 251.323,519.701 253.507,521.154C255.685,522.604 257.138,525.15 257.867,528.782L281.114,651.569L302.548,585.815C303.03,584.125 304.119,581.942 305.819,579.276C307.509,576.616 310.539,575.28 314.9,575.28L349.046,575.28C353.406,575.28 356.432,576.616 358.132,579.276C359.822,581.942 360.911,584.125 361.398,585.815L382.832,651.569Z" style="fill:white;fill-rule:nonzero;"/>
        <path d="M957.959,761.279C958.688,762.25 959.053,763.581 959.053,765.275C959.053,767.453 958.26,769.331 956.688,770.907C955.111,772.484 953.238,773.268 951.061,773.268L893.299,773.268C889.903,773.268 887.12,772.538 884.942,771.085C882.764,769.631 880.581,767.576 878.403,764.911L809.742,678.452L809.742,763.457C809.742,766.128 808.771,768.424 806.84,770.36C804.898,772.302 802.598,773.268 799.937,773.268L752.345,773.268C749.679,773.268 747.378,772.302 745.446,770.36C743.505,768.424 742.539,766.128 742.539,763.457L742.539,528.782C742.539,526.121 743.505,523.82 745.446,521.88C747.378,519.943 749.679,518.972 752.345,518.972L799.937,518.972C802.598,518.972 804.898,519.943 806.84,521.88C808.771,523.82 809.742,526.121 809.742,528.782L809.742,605.431L873.684,526.964C874.891,525.51 876.462,523.82 878.403,521.88C880.34,519.943 883.606,518.972 888.214,518.972L944.882,518.972C947.064,518.972 948.938,519.76 950.514,521.332C952.086,522.914 952.874,524.786 952.874,526.964C952.874,528.664 952.51,529.994 951.785,530.96L862.055,640.67L957.959,761.279Z" style="fill:white;fill-rule:nonzero;"/>
        <path d="M1165.17,715.141C1167.83,715.141 1170.13,716.111 1172.07,718.048C1174,719.989 1174.98,722.29 1174.98,724.951L1174.98,763.457C1174.98,766.128 1174,768.424 1172.07,770.36C1170.13,772.302 1167.83,773.268 1165.17,773.268L992.973,773.268C990.308,773.268 988.006,772.302 986.074,770.36C984.134,768.424 983.168,766.128 983.168,763.457L983.168,528.782C983.168,526.121 984.134,523.82 986.074,521.88C988.006,519.943 990.308,518.972 992.973,518.972L1162.26,518.972C1164.92,518.972 1167.22,519.943 1169.16,521.88C1171.1,523.82 1172.07,526.121 1172.07,528.782L1172.07,567.288C1172.07,569.954 1171.1,572.255 1169.16,574.191C1167.22,576.133 1164.92,577.099 1162.26,577.099L1050.37,577.099L1050.37,616.329L1154.27,616.329C1156.93,616.329 1159.23,617.3 1161.17,619.236C1163.11,621.178 1164.08,623.478 1164.08,626.14L1164.08,664.646C1164.08,667.316 1163.11,669.613 1161.17,671.549C1159.23,673.49 1156.93,674.456 1154.27,674.456L1050.37,674.456L1050.37,715.141L1165.17,715.141Z" style="fill:white;fill-rule:nonzero;"/>
        <path d="M140.785,145.522L1225.21,145.522L1225.21,455.156C1225.21,461.153 1230.08,466.016 1236.07,466.016L1272.78,466.016C1278.43,466.016 1283,461.442 1283,455.8L1283,103.091C1283,94.612 1276.13,87.738 1267.65,87.738L98.354,87.738C89.874,87.738 83,94.612 83,103.092L83,461.579C83,464.029 84.986,466.016 87.436,466.016L132.232,466.016C136.956,466.016 140.785,462.187 140.785,457.463L140.785,145.522Z" style="fill:white;fill-rule:nonzero;"/>
        <path d="M1225.21,835.089L140.785,835.089L140.785,527.465C140.785,523.313 137.42,519.948 133.269,519.948L91.429,519.948C86.774,519.948 83,523.722 83,528.377L83,877.518C83,885.999 89.874,892.873 98.354,892.873L1267.65,892.873C1276.13,892.873 1283,885.999 1283,877.519L1283,531.362C1283,525.059 1277.89,519.948 1271.59,519.948L1236.67,519.948C1230.34,519.948 1225.21,525.074 1225.21,531.398L1225.21,835.089Z" style="fill:white;fill-rule:nonzero;"/>
        <path d="M923.455,448.213L844.352,219.613C843.382,216.955 841.629,214.298 839.09,211.63C836.551,208.973 832.859,207.639 828.021,207.639L769.238,207.639C764.396,207.639 760.715,208.973 758.171,211.63C755.631,214.298 753.874,216.955 752.909,219.613L673.81,448.213C672.841,450.634 672.358,452.446 672.358,453.656C672.358,455.832 673.142,457.707 674.716,459.282C676.286,460.856 678.161,461.639 680.341,461.639L734.715,461.639C736.435,461.639 737.963,460.539 738.508,458.908L798.63,279.124L841.155,405.119L798.339,405.119C795.765,405.119 793.478,406.761 792.654,409.2L776.736,456.36C775.861,458.953 777.79,461.639 780.526,461.639L916.919,461.639C919.099,461.639 920.97,460.856 922.545,459.282C924.114,457.707 924.902,455.832 924.902,453.656C924.902,452.446 924.415,450.634 923.455,448.213Z" style="fill:white;fill-rule:nonzero;"/>
        <path d="M715.225,759.842L636.122,531.241C635.152,528.584 633.399,525.927 630.86,523.259C628.32,520.602 624.629,519.268 619.791,519.268L561.009,519.268C556.166,519.268 552.485,520.602 549.94,523.259C547.4,525.927 545.644,528.584 544.679,531.241L465.58,759.842C464.611,762.263 464.129,764.074 464.129,765.285C464.129,767.46 464.911,769.335 466.486,770.91C468.056,772.485 469.931,773.268 472.111,773.268L526.484,773.268C528.205,773.268 529.732,772.168 530.278,770.536L590.4,590.753L632.926,716.747L590.109,716.747C587.534,716.747 585.247,718.39 584.424,720.828L568.507,767.988C567.632,770.581 569.56,773.268 572.297,773.268L708.688,773.268C710.869,773.268 712.74,772.485 714.314,770.91C715.885,769.335 716.672,767.46 716.672,765.285C716.672,764.074 716.185,762.263 715.225,759.842Z" style="fill:white;fill-rule:nonzero;"/>
    </g>
</svg>
